<svg id="svg" version="1.1" xmlns="http://www.w3.org/2000/svg" xmlns:xlink="http://www.w3.org/1999/xlink" width="400" height="81.23076923076924" viewBox="0, 0, 400,81.23076923076924"><g id="svgg"><path id="path0" d="M35.220 15.531 C 34.635 15.815,34.441 16.527,34.558 17.966 C 34.689 19.582,34.557 19.842,33.867 19.332 C 32.425 18.266,30.217 20.106,31.246 21.517 C 32.327 22.998,32.263 23.181,30.436 23.847 C 23.759 26.281,19.943 31.809,19.714 39.375 C 19.595 43.336,19.722 43.139,17.477 42.842 C 14.441 42.442,14.417 42.463,15.490 44.606 C 16.397 46.420,17.298 47.416,18.366 47.789 C 19.538 48.198,19.615 48.386,19.718 51.083 C 19.827 53.927,20.523 56.024,21.734 57.154 C 22.256 57.642,22.256 57.652,21.808 56.226 C 20.727 52.782,22.000 49.464,25.035 47.819 L 26.083 47.250 35.750 47.250 L 45.417 47.250 46.320 47.725 C 48.330 48.784,49.677 50.560,49.999 52.579 C 50.382 54.974,49.887 56.566,47.987 59.046 L 47.632 59.509 48.236 59.153 C 50.466 57.837,51.937 54.650,52.112 50.750 C 52.217 48.421,52.326 48.121,53.137 47.919 C 54.332 47.620,55.308 46.565,56.401 44.388 C 57.364 42.468,57.271 42.354,55.064 42.740 C 52.114 43.256,52.248 43.398,52.109 39.583 C 51.808 31.242,47.369 25.356,39.917 23.416 C 37.807 22.867,37.781 22.783,38.982 20.381 C 40.391 17.562,40.469 16.082,39.237 15.567 C 38.576 15.291,35.770 15.266,35.220 15.531 M35.163 21.160 C 35.564 21.945,35.595 22.474,35.248 22.607 C 34.777 22.788,34.500 22.340,34.500 21.396 C 34.500 20.332,34.704 20.259,35.163 21.160 M128.750 23.558 C 126.855 24.440,126.640 26.966,128.339 28.396 C 129.945 29.747,132.833 28.241,132.833 26.052 C 132.833 24.188,130.482 22.752,128.750 23.558 M189.417 23.487 C 185.135 24.054,180.588 27.011,178.145 30.818 C 170.386 42.912,179.993 58.166,194.333 56.521 C 198.536 56.039,203.818 53.731,204.792 51.950 C 205.161 51.275,205.329 42.891,204.996 41.750 C 204.372 39.611,201.665 39.151,200.196 40.934 L 199.667 41.576 199.650 44.913 C 199.631 48.838,199.605 48.967,198.752 49.446 C 190.191 54.248,179.688 47.595,181.224 38.344 C 182.568 30.251,190.906 26.640,198.885 30.696 C 201.737 32.146,203.667 31.321,203.667 28.652 C 203.667 25.384,196.021 22.613,189.417 23.487 M260.000 23.487 C 256.299 23.863,251.773 26.443,249.394 29.530 C 243.631 37.011,244.724 46.821,252.004 52.959 C 256.501 56.751,264.386 58.003,265.839 55.157 C 266.942 52.994,264.965 51.186,261.478 51.170 C 260.753 51.166,259.125 50.574,257.559 49.744 C 247.720 44.527,250.603 30.308,261.750 29.077 C 263.675 28.865,266.973 29.662,270.125 31.102 C 273.333 32.567,275.867 29.017,273.299 26.657 C 270.627 24.200,265.348 22.942,260.000 23.487 M98.276 24.235 C 97.532 24.510,96.916 25.043,96.526 25.750 C 96.275 26.204,96.250 27.512,96.250 39.917 L 96.250 53.583 96.667 54.328 C 97.743 56.250,100.496 56.312,101.652 54.440 C 101.996 53.884,102.000 53.748,102.000 42.226 C 102.000 31.778,102.028 30.535,102.269 30.191 L 102.537 29.807 107.323 29.862 L 112.108 29.917 112.805 30.378 C 115.013 31.840,115.461 34.487,114.085 37.927 C 113.128 40.320,114.057 42.136,116.323 42.300 C 117.829 42.409,118.604 41.843,119.469 40.000 C 122.372 33.812,119.550 26.168,113.743 24.489 C 112.047 23.999,99.475 23.792,98.276 24.235 M142.987 24.546 C 142.678 24.754,142.254 25.178,142.046 25.487 L 141.667 26.049 141.667 39.960 C 141.667 53.717,141.670 53.878,142.011 54.477 C 142.946 56.121,145.227 56.341,146.484 54.909 C 147.282 54.001,147.333 53.359,147.333 44.314 C 147.333 35.965,147.374 35.333,147.917 35.333 C 148.139 35.333,149.440 36.854,153.333 41.665 C 154.204 42.741,155.776 44.663,156.826 45.935 C 157.876 47.208,159.517 49.225,160.473 50.417 C 164.888 55.920,166.010 56.680,167.860 55.423 C 169.207 54.507,169.181 54.738,169.129 44.301 L 169.083 35.057 168.616 34.445 C 167.331 32.760,164.602 32.973,163.778 34.823 C 163.657 35.093,163.556 36.954,163.502 39.881 C 163.431 43.752,163.376 44.539,163.167 44.670 C 162.771 44.920,162.712 44.884,161.961 43.941 C 161.570 43.450,160.441 42.062,159.452 40.857 C 158.464 39.652,157.151 38.042,156.536 37.281 C 155.920 36.519,154.292 34.519,152.917 32.837 C 151.542 31.154,149.592 28.762,148.583 27.520 C 145.814 24.109,144.596 23.462,142.987 24.546 M164.652 24.708 C 162.649 26.242,163.434 29.220,165.940 29.596 C 167.560 29.838,169.167 28.496,169.167 26.901 C 169.167 24.673,166.432 23.345,164.652 24.708 M213.833 24.516 C 212.503 25.296,212.589 24.574,212.538 35.383 L 212.492 45.015 212.900 46.466 C 214.791 53.183,219.080 56.398,226.167 56.411 C 233.019 56.424,237.645 53.036,239.362 46.750 C 240.067 44.170,240.243 36.047,239.619 34.884 C 238.891 33.525,237.327 33.011,236.010 33.698 C 234.601 34.432,234.597 34.447,234.485 39.303 C 234.360 44.690,234.045 46.184,232.631 48.095 C 229.980 51.676,223.189 52.022,220.176 48.730 C 218.139 46.504,218.021 45.774,218.005 35.333 C 217.997 30.298,217.925 26.791,217.820 26.333 C 217.407 24.537,215.377 23.612,213.833 24.516 M236.083 24.403 C 233.441 25.582,234.320 29.667,237.217 29.667 C 239.972 29.667,240.902 25.870,238.480 24.509 C 237.786 24.119,236.816 24.076,236.083 24.403 M31.583 32.009 C 35.552 33.512,36.638 38.875,33.590 41.923 C 30.552 44.960,25.608 44.095,23.789 40.207 C 21.448 35.206,26.366 30.034,31.583 32.009 M128.667 32.706 C 128.138 32.972,127.793 33.305,127.500 33.833 L 127.083 34.583 127.046 43.833 C 127.013 52.216,127.036 53.161,127.296 53.911 C 128.103 56.237,131.188 56.529,132.437 54.397 L 132.841 53.707 132.796 43.952 L 132.750 34.197 132.235 33.557 C 131.287 32.379,129.951 32.060,128.667 32.706 M47.961 35.277 C 51.745 37.616,50.207 43.179,45.781 43.163 C 41.127 43.146,40.019 36.544,44.398 34.926 C 45.461 34.533,47.004 34.685,47.961 35.277 M25.673 36.270 C 24.104 37.590,24.372 39.806,26.192 40.560 C 29.021 41.732,30.948 37.834,28.378 36.139 C 27.652 35.661,26.321 35.725,25.673 36.270 M46.535 37.252 C 45.119 37.864,45.397 39.968,46.933 40.255 C 47.554 40.372,48.452 39.831,48.597 39.254 C 48.953 37.836,47.793 36.709,46.535 37.252 M192.167 40.021 C 191.580 40.255,191.021 40.813,190.650 41.535 C 189.472 43.833,192.541 46.385,194.711 44.911 C 197.451 43.049,195.239 38.796,192.167 40.021 M39.808 43.981 C 40.446 44.385,38.127 46.167,36.962 46.167 C 36.164 46.167,33.833 44.792,33.833 44.321 C 33.833 43.887,39.179 43.582,39.808 43.981 M34.407 49.349 C 34.345 49.450,34.397 49.635,34.522 49.760 C 34.811 50.049,35.255 49.804,35.113 49.433 C 34.996 49.128,34.574 49.078,34.407 49.349 M36.887 49.433 C 36.782 49.708,37.121 50.035,37.417 49.943 C 37.508 49.914,37.607 49.728,37.637 49.529 C 37.701 49.089,37.051 49.006,36.887 49.433 M26.203 59.668 C 25.555 60.063,25.385 60.411,25.670 60.754 C 25.784 60.892,25.999 61.247,26.147 61.544 L 26.417 62.083 28.574 62.130 C 30.210 62.166,30.885 62.115,31.369 61.922 C 31.858 61.726,32.697 61.667,34.966 61.667 C 38.322 61.667,38.580 61.744,38.758 62.796 C 38.976 64.091,38.790 64.000,41.228 64.000 C 43.740 64.000,43.833 63.958,43.833 62.837 C 43.833 61.840,44.157 61.411,45.307 60.882 C 46.403 60.379,46.173 60.223,44.729 60.490 C 44.170 60.593,41.322 60.667,37.873 60.667 L 31.974 60.667 31.314 60.000 L 30.654 59.333 28.702 59.334 C 27.043 59.334,26.668 59.385,26.203 59.668 " stroke="none" fill="#4573e5" fill-rule="evenodd"></path><path id="path1" d="M340.546 24.117 C 340.341 24.157,339.822 24.508,339.392 24.897 C 338.075 26.089,338.160 27.061,340.074 32.750 C 340.197 33.117,340.469 33.979,340.679 34.667 C 340.888 35.354,341.299 36.667,341.593 37.583 C 341.887 38.500,342.334 39.925,342.586 40.750 C 342.838 41.575,343.250 42.887,343.502 43.667 C 343.755 44.446,344.167 45.758,344.419 46.583 C 344.671 47.408,345.082 48.721,345.333 49.500 C 345.584 50.279,345.996 51.592,346.249 52.417 C 347.146 55.343,347.809 55.958,349.959 55.858 C 350.868 55.816,351.994 54.552,352.654 52.833 C 353.569 50.452,356.945 41.884,358.565 37.833 C 360.092 34.015,360.004 33.940,362.913 41.583 C 363.157 42.225,363.455 42.975,363.575 43.250 C 363.695 43.525,363.982 44.237,364.212 44.833 C 364.443 45.429,365.119 47.154,365.715 48.667 C 366.311 50.179,367.044 52.054,367.344 52.833 C 368.419 55.624,370.346 56.654,372.167 55.410 C 373.016 54.831,373.179 54.468,374.418 50.417 C 374.671 49.592,375.082 48.279,375.333 47.500 C 375.584 46.721,375.994 45.408,376.243 44.583 C 376.493 43.758,376.799 42.783,376.924 42.417 C 377.048 42.050,377.460 40.737,377.839 39.500 C 378.217 38.262,378.596 37.033,378.680 36.767 C 379.180 35.189,378.408 33.599,376.822 32.936 C 375.408 32.345,373.442 33.560,373.080 35.250 C 373.021 35.525,372.867 36.087,372.738 36.500 C 372.442 37.445,371.516 40.700,371.291 41.583 C 370.235 45.727,370.299 45.794,367.046 37.167 C 366.821 36.571,366.381 35.444,366.068 34.663 C 365.756 33.882,365.497 33.169,365.494 33.080 C 365.491 32.990,365.344 32.617,365.167 32.250 C 364.990 31.883,364.842 31.524,364.839 31.452 C 364.832 31.281,363.090 26.823,362.619 25.768 C 361.441 23.134,357.962 23.621,357.075 26.544 C 357.012 26.749,356.551 27.967,356.049 29.250 C 355.145 31.561,354.470 33.316,353.741 35.250 C 353.533 35.800,352.940 37.337,352.421 38.667 C 351.903 39.996,351.327 41.496,351.142 42.000 C 349.952 45.227,349.731 45.162,348.596 41.250 C 347.862 38.720,347.634 37.952,347.330 37.000 C 347.170 36.496,346.870 35.483,346.663 34.750 C 346.457 34.017,346.193 33.117,346.076 32.750 C 345.766 31.776,345.267 30.104,344.832 28.583 C 344.081 25.956,343.810 25.338,343.183 24.821 C 342.354 24.137,341.551 23.923,340.546 24.117 M377.503 24.375 C 376.268 25.006,375.694 26.225,375.997 27.571 C 376.771 31.001,381.697 30.304,381.473 26.796 C 381.332 24.594,379.392 23.410,377.503 24.375 M282.750 24.400 C 281.914 24.769,281.367 25.455,281.165 26.389 C 280.820 27.986,281.013 53.621,281.375 54.283 C 282.204 55.799,284.058 56.281,285.322 55.309 C 286.640 54.296,286.667 54.177,286.667 49.304 C 286.667 44.001,286.287 44.498,290.329 44.506 C 293.774 44.513,293.671 44.474,294.841 46.227 C 295.795 47.656,296.311 48.000,297.500 48.000 C 299.590 48.000,300.870 45.936,299.916 44.106 C 299.511 43.331,299.603 43.145,301.043 41.814 C 307.023 36.290,304.670 26.513,296.879 24.518 C 295.172 24.080,283.693 23.985,282.750 24.400 M313.475 24.503 C 312.074 25.243,312.167 24.139,312.167 40.009 L 312.167 54.063 312.539 54.606 C 313.405 55.870,313.097 55.833,322.739 55.833 C 332.368 55.833,331.932 55.885,332.837 54.636 C 333.928 53.129,333.176 50.966,331.350 50.356 C 330.968 50.228,328.769 50.167,324.584 50.167 C 317.003 50.167,317.833 50.620,317.833 46.477 C 317.833 42.307,317.094 42.768,323.945 42.667 C 330.281 42.573,330.303 42.569,331.084 41.332 C 331.676 40.394,331.649 39.422,331.005 38.534 C 330.182 37.398,330.343 37.425,324.028 37.333 C 317.078 37.232,317.833 37.700,317.833 33.494 C 317.833 29.687,317.748 29.833,319.958 29.833 C 323.997 29.833,325.742 26.093,322.488 24.411 C 321.689 23.997,314.288 24.073,313.475 24.503 M328.912 24.572 C 326.875 25.794,327.283 28.696,329.617 29.587 C 331.323 30.239,333.167 28.807,333.167 26.830 C 333.167 24.686,330.809 23.435,328.912 24.572 M295.465 29.810 C 299.375 31.026,299.975 37.108,296.376 39.038 C 294.907 39.826,287.749 40.192,286.942 39.521 C 286.477 39.135,286.531 30.303,287.000 29.833 C 287.487 29.346,293.919 29.328,295.465 29.810 M107.523 40.112 C 106.921 40.239,105.713 41.544,105.514 42.282 C 105.007 44.166,107.122 46.249,108.977 45.693 C 112.605 44.606,111.231 39.331,107.523 40.112 M270.737 48.227 C 267.736 49.587,269.138 54.084,272.410 53.593 C 274.914 53.218,275.663 50.108,273.635 48.509 C 273.005 48.012,271.528 47.869,270.737 48.227 M302.020 50.335 C 299.672 50.882,299.043 53.974,301.014 55.279 C 302.285 56.120,303.619 55.918,304.666 54.726 C 306.252 52.919,304.366 49.789,302.020 50.335 " stroke="none" fill="#19dac8" fill-rule="evenodd"></path><path id="path2" d="M0.000 40.583 L 0.000 81.167 200.000 81.167 L 400.000 81.167 400.000 40.583 L 400.000 0.000 200.000 0.000 L 0.000 0.000 0.000 40.583 M39.442 15.049 C 41.026 15.882,40.992 17.420,39.312 20.857 C 38.515 22.487,38.514 22.448,39.375 22.669 C 47.471 24.753,52.341 30.866,52.620 39.297 C 52.675 40.951,52.787 42.221,52.884 42.281 C 53.154 42.448,54.148 42.370,55.620 42.066 C 56.734 41.836,57.037 41.823,57.245 41.995 C 58.326 42.893,55.463 47.856,53.631 48.258 C 52.869 48.425,52.712 48.877,52.620 51.167 C 52.431 55.835,50.070 59.410,45.898 61.348 C 44.492 62.001,44.341 62.183,44.336 63.219 C 44.330 64.393,43.709 64.667,41.051 64.667 C 38.871 64.667,38.490 64.472,38.259 63.241 C 38.192 62.880,38.049 62.529,37.943 62.461 C 37.552 62.213,31.916 62.316,31.276 62.583 C 30.854 62.760,30.072 62.833,28.626 62.833 C 26.342 62.833,25.996 62.713,25.606 61.779 C 25.484 61.486,25.054 61.024,24.650 60.752 C 20.954 58.258,19.167 54.916,19.167 50.495 C 19.167 48.834,18.993 48.484,18.022 48.193 C 17.098 47.916,15.739 46.372,14.862 44.603 C 13.680 42.218,13.974 41.629,16.128 42.068 C 19.253 42.706,19.048 42.867,19.192 39.667 C 19.561 31.503,23.553 25.607,30.250 23.336 C 31.256 22.995,31.368 22.645,30.759 21.747 C 29.775 20.298,30.829 18.775,33.000 18.509 L 33.750 18.417 33.859 17.310 C 34.075 15.131,34.767 14.640,37.500 14.727 C 38.420 14.757,39.101 14.869,39.442 15.049 M131.250 23.122 C 134.103 24.543,133.712 28.457,130.631 29.320 C 128.756 29.845,126.669 28.136,126.667 26.074 C 126.666 23.744,129.209 22.106,131.250 23.122 M195.827 23.071 C 200.751 23.954,204.313 26.353,204.329 28.798 C 204.349 31.878,201.927 32.720,198.167 30.941 C 192.112 28.077,185.378 29.865,182.884 35.000 C 181.772 37.288,181.750 37.386,181.750 40.000 C 181.750 42.536,181.751 42.541,182.693 44.652 C 183.546 46.561,185.533 48.472,187.786 49.550 L 189.250 50.250 192.250 50.249 C 195.368 50.247,195.993 50.137,197.942 49.241 C 198.231 49.109,198.547 49.000,198.644 49.000 C 199.067 49.000,199.167 48.227,199.167 44.967 C 199.167 41.063,199.243 40.781,200.543 39.896 C 201.905 38.969,203.272 39.018,204.429 40.033 C 205.666 41.119,205.687 41.237,205.632 46.812 L 205.583 51.777 205.109 52.398 C 204.260 53.510,202.143 54.838,199.833 55.705 C 190.147 59.343,180.494 55.876,176.525 47.333 C 170.494 34.351,181.509 20.505,195.827 23.071 M265.428 23.008 C 272.320 24.032,276.031 27.177,274.271 30.503 C 273.364 32.218,272.136 32.386,269.167 31.200 C 264.999 29.536,261.654 29.128,259.448 30.014 C 252.901 32.642,250.268 38.758,253.105 44.749 C 254.606 47.920,258.790 50.566,262.833 50.902 C 267.546 51.294,268.189 56.034,263.661 57.005 C 256.085 58.630,247.081 51.526,245.488 42.667 C 245.307 41.659,245.311 37.583,245.494 36.750 C 247.152 29.212,252.788 24.015,260.417 22.991 C 263.205 22.617,262.787 22.615,265.428 23.008 M111.583 23.684 C 115.135 24.084,117.371 25.355,119.119 27.966 C 123.526 34.551,119.662 46.095,114.395 42.078 C 113.052 41.054,112.849 39.625,113.750 37.546 C 114.859 34.986,114.459 32.261,112.776 30.925 L 112.136 30.417 107.360 30.417 L 102.583 30.417 102.500 42.264 L 102.417 54.112 101.956 54.777 C 100.500 56.878,97.333 56.727,96.208 54.504 L 95.833 53.763 95.833 39.948 C 95.833 24.678,95.768 25.613,96.913 24.503 C 97.247 24.180,97.810 23.865,98.282 23.738 C 99.322 23.458,109.222 23.419,111.583 23.684 M216.429 23.851 C 217.018 24.030,217.824 24.823,218.273 25.667 C 218.562 26.210,218.589 26.900,218.671 35.667 C 218.774 46.771,218.705 46.348,220.730 48.457 C 223.535 51.378,230.060 50.887,232.332 47.585 C 233.555 45.808,233.698 45.062,233.791 40.000 C 233.866 35.881,233.908 35.345,234.206 34.707 C 235.213 32.552,238.305 32.174,239.723 34.033 C 241.302 36.104,240.930 44.881,239.077 49.250 C 234.632 59.733,217.680 59.733,213.218 49.250 C 211.958 46.290,211.833 44.999,211.834 34.905 C 211.835 25.777,211.846 25.664,212.812 24.629 C 213.744 23.629,214.884 23.384,216.429 23.851 M238.447 23.858 C 241.716 24.849,240.645 30.333,237.183 30.333 C 233.406 30.333,232.638 24.704,236.284 23.741 C 237.079 23.532,237.436 23.551,238.447 23.858 M294.750 23.677 C 296.794 23.898,298.102 24.216,299.320 24.786 C 305.747 27.796,306.881 37.388,301.391 42.296 L 300.292 43.278 300.595 44.453 C 301.069 46.293,300.581 47.449,298.989 48.256 C 297.137 49.194,295.621 48.535,294.101 46.132 C 293.618 45.369,293.391 45.161,292.947 45.078 C 292.177 44.933,287.557 45.053,287.388 45.222 C 287.312 45.298,287.212 47.335,287.167 49.750 L 287.083 54.139 286.583 54.848 C 285.085 56.975,281.999 56.769,280.817 54.465 C 280.322 53.500,280.323 26.497,280.818 25.535 C 281.313 24.574,282.044 23.982,283.032 23.743 C 284.161 23.469,292.402 23.423,294.750 23.677 M321.983 23.743 C 324.528 24.421,325.411 27.475,323.557 29.187 C 322.535 30.130,322.202 30.245,320.258 30.333 L 318.417 30.417 318.371 33.404 C 318.341 35.367,318.387 36.453,318.504 36.571 C 318.621 36.688,320.636 36.779,324.326 36.833 L 329.970 36.917 330.599 37.426 C 332.584 39.034,332.377 41.602,330.169 42.771 C 329.427 43.164,329.382 43.167,324.065 43.167 C 319.711 43.167,318.672 43.210,318.516 43.397 C 318.385 43.556,318.340 44.550,318.371 46.605 L 318.417 49.583 324.917 49.667 C 331.189 49.747,331.440 49.763,332.094 50.112 C 334.208 51.244,334.397 54.479,332.425 55.795 C 331.479 56.426,330.455 56.500,322.700 56.497 C 313.376 56.494,312.891 56.406,311.973 54.541 L 311.583 53.750 311.532 40.583 C 311.472 25.038,311.459 25.171,313.096 24.159 C 314.190 23.483,319.986 23.212,321.983 23.743 M331.971 24.039 C 333.609 24.804,334.196 27.064,333.177 28.687 C 331.463 31.416,327.432 30.387,327.199 27.161 C 327.004 24.476,329.463 22.868,331.971 24.039 M379.947 23.858 C 383.408 24.908,382.045 30.599,378.405 30.298 C 374.874 30.005,374.332 24.968,377.708 23.817 C 378.564 23.525,378.870 23.531,379.947 23.858 M145.931 24.080 C 146.807 24.517,146.677 24.368,153.283 32.488 C 154.731 34.268,156.292 36.186,156.750 36.748 C 157.208 37.310,158.462 38.853,159.537 40.177 C 163.301 44.814,162.994 44.885,162.997 39.368 C 163.000 34.915,163.055 34.633,164.110 33.636 C 165.795 32.042,168.885 32.875,169.484 35.083 C 169.737 36.017,169.735 52.916,169.481 53.924 C 169.210 54.998,168.133 56.094,167.195 56.248 C 165.231 56.572,164.364 56.017,161.750 52.768 C 160.709 51.475,159.058 49.442,158.081 48.250 C 157.103 47.058,155.906 45.596,155.420 45.000 C 154.934 44.404,154.097 43.379,153.560 42.721 C 153.023 42.064,151.712 40.450,150.647 39.135 C 148.506 36.491,148.227 36.207,147.999 36.435 C 147.910 36.523,147.825 40.251,147.797 45.253 L 147.750 53.917 147.346 54.623 C 146.121 56.761,142.897 56.899,141.633 54.867 L 141.250 54.250 141.199 40.750 C 141.172 33.325,141.197 26.848,141.256 26.356 C 141.514 24.191,143.861 23.049,145.931 24.080 M167.849 24.054 C 170.203 25.297,170.200 28.515,167.843 29.818 C 166.377 30.628,164.543 30.103,163.526 28.583 C 161.705 25.863,164.911 22.504,167.849 24.054 M343.169 24.232 C 343.990 24.775,344.462 25.687,345.166 28.083 C 345.462 29.092,345.851 30.404,346.030 31.000 C 346.209 31.596,346.460 32.458,346.587 32.917 C 346.715 33.375,346.969 34.237,347.153 34.833 C 348.148 38.065,348.714 39.974,349.095 41.382 C 349.469 42.765,349.831 43.569,350.003 43.397 C 350.165 43.234,351.825 39.181,351.837 38.917 C 351.841 38.825,351.990 38.450,352.167 38.083 C 352.344 37.717,352.491 37.343,352.494 37.254 C 352.497 37.164,352.755 36.452,353.068 35.670 C 353.380 34.889,353.952 33.425,354.339 32.417 C 354.725 31.408,355.104 30.433,355.179 30.250 C 355.254 30.067,355.501 29.429,355.726 28.833 C 355.952 28.238,356.347 27.201,356.604 26.530 C 357.634 23.841,359.928 22.837,361.934 24.198 C 362.460 24.555,363.833 26.938,363.833 27.494 C 363.833 27.601,363.978 28.040,364.155 28.469 C 364.468 29.226,366.017 33.227,366.653 34.917 C 366.825 35.375,367.229 36.425,367.551 37.250 C 367.872 38.075,368.449 39.575,368.833 40.583 C 370.235 44.270,370.071 44.410,371.833 38.000 C 373.141 33.245,373.715 32.462,375.924 32.431 C 378.440 32.395,379.929 34.879,378.962 37.500 C 378.703 38.203,378.170 39.881,377.084 43.417 C 376.830 44.242,376.417 45.554,376.164 46.333 C 375.912 47.112,375.501 48.425,375.252 49.250 C 375.002 50.075,374.701 51.050,374.583 51.417 C 374.464 51.783,374.191 52.637,373.975 53.313 C 372.895 56.701,369.548 57.444,367.754 54.695 C 367.319 54.027,366.913 53.032,363.239 43.625 C 362.729 42.319,362.171 40.912,361.999 40.500 C 361.827 40.087,361.348 38.887,360.935 37.833 C 360.523 36.779,360.102 35.917,360.000 35.917 C 359.898 35.917,359.476 36.779,359.062 37.833 C 357.892 40.808,357.663 41.379,357.424 41.917 C 357.302 42.192,357.033 42.867,356.827 43.417 C 356.621 43.967,356.313 44.731,356.143 45.116 C 355.972 45.500,355.833 45.901,355.833 46.007 C 355.833 46.112,355.730 46.398,355.604 46.641 C 355.477 46.884,355.204 47.533,354.996 48.083 C 354.788 48.633,354.479 49.398,354.309 49.783 C 354.139 50.167,354.000 50.551,354.000 50.636 C 354.000 50.721,353.845 51.157,353.656 51.604 C 353.467 52.051,353.250 52.567,353.173 52.750 C 351.943 55.712,350.844 56.573,348.699 56.251 C 347.176 56.023,346.549 55.045,345.334 51.000 C 345.128 50.313,344.717 49.000,344.421 48.083 C 344.125 47.167,343.712 45.854,343.503 45.167 C 343.294 44.479,342.884 43.167,342.591 42.250 C 342.298 41.333,341.886 40.021,341.674 39.333 C 341.148 37.629,340.183 34.563,339.916 33.750 C 339.796 33.383,339.497 32.408,339.251 31.583 C 339.006 30.758,338.705 29.821,338.582 29.500 C 338.459 29.179,338.233 28.423,338.079 27.820 C 337.320 24.845,340.601 22.532,343.169 24.232 M287.429 30.429 C 287.088 30.769,287.031 38.631,287.367 38.967 C 287.765 39.365,294.461 39.234,295.580 38.806 C 299.179 37.429,298.959 31.028,295.288 30.318 C 293.897 30.048,287.722 30.136,287.429 30.429 M131.336 32.232 C 132.363 32.781,132.958 33.568,133.163 34.649 C 133.384 35.815,133.391 52.484,133.171 53.645 C 132.603 56.640,128.563 57.255,127.046 54.576 L 126.672 53.917 126.669 44.067 L 126.667 34.217 127.142 33.567 C 128.383 31.871,129.809 31.417,131.336 32.232 M27.276 32.512 C 25.665 33.166,24.518 34.401,24.060 35.975 C 23.722 37.134,23.952 37.396,24.581 36.571 C 25.994 34.719,28.907 35.051,29.818 37.168 C 30.910 39.706,28.328 42.171,25.719 41.081 C 24.962 40.765,24.863 40.857,25.326 41.445 C 27.123 43.730,31.196 43.717,33.313 41.419 C 37.241 37.158,32.622 30.343,27.276 32.512 M44.648 35.397 C 41.750 36.432,41.210 40.253,43.721 41.949 C 45.019 42.825,46.845 42.856,48.000 42.021 C 51.456 39.519,48.646 33.968,44.648 35.397 M48.159 36.913 C 49.124 37.412,49.557 38.587,49.099 39.467 C 48.265 41.069,46.222 41.251,45.338 39.802 C 44.245 38.009,46.269 35.936,48.159 36.913 M194.511 39.625 C 197.790 41.288,196.836 45.833,193.208 45.833 C 189.310 45.833,188.726 40.470,192.499 39.322 C 193.226 39.101,193.583 39.155,194.511 39.625 M109.123 39.708 C 112.737 40.657,112.052 46.318,108.322 46.332 C 104.647 46.346,103.920 40.827,107.452 39.731 C 108.292 39.470,108.219 39.471,109.123 39.708 M35.256 44.657 C 35.136 44.852,36.494 45.668,36.931 45.664 C 37.336 45.660,38.535 44.984,38.626 44.708 C 38.709 44.455,35.412 44.405,35.256 44.657 M26.667 47.729 C 23.494 48.603,21.387 51.752,21.980 54.737 C 22.530 57.509,24.623 59.835,25.882 59.074 C 26.343 58.795,26.735 58.750,28.715 58.750 L 31.013 58.750 31.548 59.385 L 32.083 60.020 38.583 59.968 L 45.083 59.917 46.184 59.378 C 51.488 56.783,50.457 49.017,44.632 47.673 C 43.533 47.420,27.610 47.469,26.667 47.729 M272.880 47.677 C 275.700 48.460,276.087 52.430,273.470 53.734 C 271.113 54.908,268.750 53.424,268.750 50.770 C 268.750 48.473,270.642 47.055,272.880 47.677 M35.624 48.849 C 36.097 49.044,36.226 49.037,36.650 48.786 C 37.633 48.206,38.333 48.537,38.333 49.583 C 38.333 50.665,37.611 50.968,36.569 50.324 L 36.014 49.982 35.374 50.351 C 34.476 50.867,33.887 50.706,33.736 49.903 C 33.489 48.582,34.124 48.228,35.624 48.849 M304.329 50.258 C 307.033 52.081,305.867 56.192,302.640 56.216 C 300.593 56.231,299.333 55.000,299.333 52.984 C 299.333 50.313,302.139 48.782,304.329 50.258 " stroke="none" fill="#fbfbfc" fill-rule="evenodd"></path><path id="path3" d="M35.535 14.821 C 34.442 15.099,34.015 15.733,33.859 17.310 L 33.750 18.417 33.000 18.509 C 30.829 18.775,29.775 20.298,30.759 21.747 C 31.368 22.645,31.256 22.995,30.250 23.336 C 23.553 25.607,19.561 31.503,19.192 39.667 C 19.048 42.867,19.253 42.706,16.128 42.068 C 13.974 41.629,13.680 42.218,14.862 44.603 C 15.739 46.372,17.098 47.916,18.022 48.193 C 18.993 48.484,19.167 48.834,19.167 50.495 C 19.167 54.916,20.954 58.258,24.650 60.752 C 25.054 61.024,25.484 61.486,25.606 61.779 C 25.996 62.713,26.342 62.833,28.626 62.833 C 30.072 62.833,30.854 62.760,31.276 62.583 C 31.916 62.316,37.552 62.213,37.943 62.461 C 38.049 62.529,38.192 62.880,38.259 63.241 C 38.490 64.472,38.871 64.667,41.051 64.667 C 43.709 64.667,44.330 64.393,44.336 63.219 C 44.341 62.183,44.492 62.001,45.898 61.348 C 50.070 59.410,52.431 55.835,52.620 51.167 C 52.712 48.877,52.869 48.425,53.631 48.258 C 55.463 47.856,58.326 42.893,57.245 41.995 C 57.037 41.823,56.734 41.836,55.620 42.066 C 54.148 42.370,53.154 42.448,52.884 42.281 C 52.787 42.221,52.675 40.951,52.620 39.297 C 52.341 30.866,47.471 24.753,39.375 22.669 C 38.514 22.448,38.515 22.487,39.312 20.857 C 40.992 17.420,41.026 15.882,39.442 15.049 C 38.847 14.736,36.427 14.595,35.535 14.821 M39.237 15.567 C 40.469 16.082,40.391 17.562,38.982 20.381 C 37.781 22.783,37.807 22.867,39.917 23.416 C 47.369 25.356,51.808 31.242,52.109 39.583 C 52.248 43.398,52.114 43.256,55.064 42.740 C 57.271 42.354,57.364 42.468,56.401 44.388 C 55.308 46.565,54.332 47.620,53.137 47.919 C 52.326 48.121,52.217 48.421,52.112 50.750 C 51.937 54.650,50.466 57.837,48.236 59.153 L 47.632 59.509 47.987 59.046 C 49.887 56.566,50.382 54.974,49.999 52.579 C 49.677 50.560,48.330 48.784,46.320 47.725 L 45.417 47.250 35.750 47.250 L 26.083 47.250 25.035 47.819 C 22.000 49.464,20.727 52.782,21.808 56.226 C 22.256 57.652,22.256 57.642,21.734 57.154 C 20.523 56.024,19.827 53.927,19.718 51.083 C 19.615 48.386,19.538 48.198,18.366 47.789 C 17.298 47.416,16.397 46.420,15.490 44.606 C 14.417 42.463,14.441 42.442,17.477 42.842 C 19.722 43.139,19.595 43.336,19.714 39.375 C 19.943 31.809,23.759 26.281,30.436 23.847 C 32.263 23.181,32.327 22.998,31.246 21.517 C 30.217 20.106,32.425 18.266,33.867 19.332 C 34.557 19.842,34.689 19.582,34.558 17.966 C 34.441 16.527,34.635 15.815,35.220 15.531 C 35.770 15.266,38.576 15.291,39.237 15.567 M34.500 21.396 C 34.500 22.340,34.777 22.788,35.248 22.607 C 35.595 22.474,35.564 21.945,35.163 21.160 C 34.704 20.259,34.500 20.332,34.500 21.396 M128.918 23.020 C 126.415 24.041,125.908 26.530,127.794 28.537 C 129.652 30.514,133.167 28.909,133.167 26.083 C 133.167 23.816,130.927 22.201,128.918 23.020 M188.917 23.075 C 176.618 25.650,170.898 39.291,177.806 49.574 C 182.540 56.621,191.071 58.996,199.833 55.705 C 202.143 54.838,204.260 53.510,205.109 52.398 L 205.583 51.777 205.632 46.812 C 205.687 41.237,205.666 41.119,204.429 40.033 C 203.272 39.018,201.905 38.969,200.543 39.896 C 199.243 40.781,199.167 41.063,199.167 44.967 C 199.167 48.227,199.067 49.000,198.644 49.000 C 198.547 49.000,198.231 49.109,197.942 49.241 C 195.993 50.137,195.368 50.247,192.250 50.249 L 189.250 50.250 187.786 49.550 C 185.533 48.472,183.546 46.561,182.693 44.652 C 181.751 42.541,181.750 42.536,181.750 40.000 C 181.750 37.386,181.772 37.288,182.884 35.000 C 185.378 29.865,192.112 28.077,198.167 30.941 C 201.483 32.510,202.917 32.330,203.981 30.215 C 205.215 27.759,203.072 25.275,198.327 23.667 C 195.557 22.727,191.729 22.487,188.917 23.075 M260.417 22.991 C 252.788 24.015,247.152 29.212,245.494 36.750 C 244.981 39.087,245.422 43.399,246.458 46.167 C 249.039 53.058,257.425 58.342,263.661 57.005 C 268.189 56.034,267.546 51.294,262.833 50.902 C 253.082 50.092,248.503 39.371,255.083 32.757 C 258.718 29.103,262.788 28.653,269.167 31.200 C 272.136 32.386,273.364 32.218,274.271 30.503 C 276.031 27.177,272.320 24.032,265.428 23.008 C 262.787 22.615,263.205 22.617,260.417 22.991 M131.558 23.775 C 132.760 24.668,133.141 26.158,132.471 27.350 C 131.301 29.432,128.562 29.415,127.493 27.319 C 126.217 24.818,129.320 22.112,131.558 23.775 M197.167 23.901 C 202.261 25.374,204.483 27.519,203.518 30.031 C 202.948 31.516,201.038 31.791,198.885 30.696 C 190.906 26.640,182.568 30.251,181.224 38.344 C 179.688 47.595,190.191 54.248,198.752 49.446 C 199.605 48.967,199.631 48.838,199.650 44.913 L 199.667 41.576 200.196 40.934 C 201.665 39.151,204.372 39.611,204.996 41.750 C 205.329 42.891,205.161 51.275,204.792 51.950 C 203.818 53.731,198.536 56.039,194.333 56.521 C 179.993 58.166,170.386 42.912,178.145 30.818 C 181.999 24.812,190.114 21.861,197.167 23.901 M267.595 23.848 C 271.942 25.163,274.338 26.919,274.332 28.786 C 274.324 30.936,272.256 32.075,270.125 31.102 C 266.973 29.662,263.675 28.865,261.750 29.077 C 250.603 30.308,247.720 44.527,257.559 49.744 C 259.125 50.574,260.753 51.166,261.478 51.170 C 264.965 51.186,266.942 52.994,265.839 55.157 C 265.216 56.376,264.619 56.584,261.750 56.576 C 249.682 56.544,241.731 42.482,247.820 31.939 C 250.222 27.781,252.848 25.672,257.750 23.962 C 259.801 23.247,265.393 23.182,267.595 23.848 M98.282 23.738 C 97.810 23.865,97.247 24.180,96.913 24.503 C 95.768 25.613,95.833 24.678,95.833 39.948 L 95.833 53.763 96.208 54.504 C 97.333 56.727,100.500 56.878,101.956 54.777 L 102.417 54.112 102.500 42.264 L 102.583 30.417 107.360 30.417 L 112.136 30.417 112.776 30.925 C 114.459 32.261,114.859 34.986,113.750 37.546 C 112.590 40.224,113.390 42.180,115.857 42.697 C 118.018 43.151,119.182 42.183,120.405 38.917 C 122.543 33.206,119.579 25.893,114.464 24.260 C 112.116 23.510,100.520 23.136,98.282 23.738 M214.257 23.748 C 211.928 24.362,211.835 24.788,211.834 34.905 C 211.833 44.999,211.958 46.290,213.218 49.250 C 217.680 59.733,234.632 59.733,239.077 49.250 C 240.930 44.881,241.302 36.104,239.723 34.033 C 238.305 32.174,235.213 32.552,234.206 34.707 C 233.908 35.345,233.866 35.881,233.791 40.000 C 233.698 45.062,233.555 45.808,232.332 47.585 C 230.060 50.887,223.535 51.378,220.730 48.457 C 218.705 46.348,218.774 46.771,218.671 35.667 C 218.589 26.900,218.562 26.210,218.273 25.667 C 217.385 23.997,215.936 23.306,214.257 23.748 M236.284 23.741 C 233.701 24.423,233.018 27.664,235.076 29.471 C 236.519 30.738,238.192 30.647,239.520 29.228 C 241.850 26.737,239.571 22.874,236.284 23.741 M283.032 23.743 C 282.044 23.982,281.313 24.574,280.818 25.535 C 280.323 26.497,280.322 53.500,280.817 54.465 C 281.999 56.769,285.085 56.975,286.583 54.848 L 287.083 54.139 287.167 49.750 C 287.212 47.335,287.312 45.298,287.388 45.222 C 287.557 45.053,292.177 44.933,292.947 45.078 C 293.391 45.161,293.618 45.369,294.101 46.132 C 295.621 48.535,297.137 49.194,298.989 48.256 C 300.581 47.449,301.069 46.293,300.595 44.453 L 300.292 43.278 301.391 42.296 C 307.601 36.744,305.261 26.068,297.404 24.104 C 294.943 23.489,285.102 23.242,283.032 23.743 M314.265 23.686 C 311.434 24.350,311.468 24.139,311.532 40.583 L 311.583 53.750 311.973 54.541 C 312.891 56.406,313.376 56.494,322.700 56.497 C 330.455 56.500,331.479 56.426,332.425 55.795 C 334.397 54.479,334.208 51.244,332.094 50.112 C 331.440 49.763,331.189 49.747,324.917 49.667 L 318.417 49.583 318.371 46.605 C 318.340 44.550,318.385 43.556,318.516 43.397 C 318.672 43.210,319.711 43.167,324.065 43.167 C 329.382 43.167,329.427 43.164,330.169 42.771 C 332.377 41.602,332.584 39.034,330.599 37.426 L 329.970 36.917 324.326 36.833 C 320.636 36.779,318.621 36.688,318.504 36.571 C 318.387 36.453,318.341 35.367,318.371 33.404 L 318.417 30.417 320.258 30.333 C 325.015 30.118,326.378 24.913,321.983 23.743 C 320.953 23.469,315.366 23.428,314.265 23.686 M329.638 23.748 C 327.942 24.207,327.073 25.423,327.199 27.161 C 327.432 30.387,331.463 31.416,333.177 28.687 C 334.757 26.171,332.473 22.983,329.638 23.748 M377.708 23.817 C 374.332 24.968,374.874 30.005,378.405 30.298 C 382.045 30.599,383.408 24.908,379.947 23.858 C 378.870 23.531,378.564 23.525,377.708 23.817 M143.230 23.847 C 142.328 24.109,141.380 25.314,141.256 26.356 C 141.197 26.848,141.172 33.325,141.199 40.750 L 141.250 54.250 141.633 54.867 C 142.897 56.899,146.121 56.761,147.346 54.623 L 147.750 53.917 147.797 45.253 C 147.825 40.251,147.910 36.523,147.999 36.435 C 148.227 36.207,148.506 36.491,150.647 39.135 C 151.712 40.450,153.023 42.064,153.560 42.721 C 154.097 43.379,154.934 44.404,155.420 45.000 C 155.906 45.596,157.103 47.058,158.081 48.250 C 159.058 49.442,160.709 51.475,161.750 52.768 C 164.364 56.017,165.231 56.572,167.195 56.248 C 168.133 56.094,169.210 54.998,169.481 53.924 C 169.735 52.916,169.737 36.017,169.484 35.083 C 168.885 32.875,165.795 32.042,164.110 33.636 C 163.055 34.633,163.000 34.915,162.997 39.368 C 162.994 44.885,163.301 44.814,159.537 40.177 C 158.462 38.853,157.208 37.310,156.750 36.748 C 156.292 36.186,154.731 34.268,153.283 32.488 C 146.677 24.368,146.807 24.517,145.931 24.080 C 145.068 23.650,144.176 23.573,143.230 23.847 M164.837 24.042 C 163.025 24.967,162.446 26.971,163.526 28.583 C 164.928 30.678,167.645 30.732,169.076 28.694 C 170.964 26.005,167.797 22.529,164.837 24.042 M339.917 23.917 C 337.897 25.009,337.500 26.672,338.582 29.500 C 338.705 29.821,339.006 30.758,339.251 31.583 C 339.497 32.408,339.796 33.383,339.916 33.750 C 340.183 34.563,341.148 37.629,341.674 39.333 C 341.886 40.021,342.298 41.333,342.591 42.250 C 342.884 43.167,343.294 44.479,343.503 45.167 C 343.712 45.854,344.125 47.167,344.421 48.083 C 344.717 49.000,345.128 50.313,345.334 51.000 C 346.549 55.045,347.176 56.023,348.699 56.251 C 350.844 56.573,351.943 55.712,353.173 52.750 C 353.250 52.567,353.467 52.051,353.656 51.604 C 353.845 51.157,354.000 50.721,354.000 50.636 C 354.000 50.551,354.139 50.167,354.309 49.783 C 354.479 49.398,354.788 48.633,354.996 48.083 C 355.204 47.533,355.477 46.884,355.604 46.641 C 355.730 46.398,355.833 46.112,355.833 46.007 C 355.833 45.901,355.972 45.500,356.143 45.116 C 356.313 44.731,356.621 43.967,356.827 43.417 C 357.033 42.867,357.302 42.192,357.424 41.917 C 357.663 41.379,357.892 40.808,359.062 37.833 C 359.476 36.779,359.898 35.917,360.000 35.917 C 360.102 35.917,360.523 36.779,360.935 37.833 C 361.348 38.887,361.827 40.087,361.999 40.500 C 362.171 40.912,362.729 42.319,363.239 43.625 C 366.913 53.032,367.319 54.027,367.754 54.695 C 369.548 57.444,372.895 56.701,373.975 53.313 C 374.191 52.637,374.464 51.783,374.583 51.417 C 374.701 51.050,375.002 50.075,375.252 49.250 C 375.501 48.425,375.912 47.112,376.164 46.333 C 376.417 45.554,376.830 44.242,377.084 43.417 C 378.170 39.881,378.703 38.203,378.962 37.500 C 379.929 34.879,378.440 32.395,375.924 32.431 C 373.715 32.462,373.141 33.245,371.833 38.000 C 370.071 44.410,370.235 44.270,368.833 40.583 C 368.449 39.575,367.872 38.075,367.551 37.250 C 367.229 36.425,366.825 35.375,366.653 34.917 C 366.017 33.227,364.468 29.226,364.155 28.469 C 363.978 28.040,363.833 27.601,363.833 27.494 C 363.833 26.938,362.460 24.555,361.934 24.198 C 359.928 22.837,357.634 23.841,356.604 26.530 C 356.347 27.201,355.952 28.238,355.726 28.833 C 355.501 29.429,355.254 30.067,355.179 30.250 C 355.104 30.433,354.725 31.408,354.339 32.417 C 353.952 33.425,353.380 34.889,353.068 35.670 C 352.755 36.452,352.497 37.164,352.494 37.254 C 352.491 37.343,352.344 37.717,352.167 38.083 C 351.990 38.450,351.841 38.825,351.837 38.917 C 351.825 39.181,350.165 43.234,350.003 43.397 C 349.831 43.569,349.469 42.765,349.095 41.382 C 348.714 39.974,348.148 38.065,347.153 34.833 C 346.969 34.237,346.715 33.375,346.587 32.917 C 346.460 32.458,346.209 31.596,346.030 31.000 C 345.851 30.404,345.462 29.092,345.166 28.083 C 344.462 25.687,343.990 24.775,343.169 24.232 C 342.319 23.669,340.671 23.510,339.917 23.917 M113.743 24.489 C 119.550 26.168,122.372 33.812,119.469 40.000 C 118.604 41.843,117.829 42.409,116.323 42.300 C 114.057 42.136,113.128 40.320,114.085 37.927 C 115.461 34.487,115.013 31.840,112.805 30.378 L 112.108 29.917 107.323 29.862 L 102.537 29.807 102.269 30.191 C 102.028 30.535,102.000 31.778,102.000 42.226 C 102.000 53.748,101.996 53.884,101.652 54.440 C 100.496 56.312,97.743 56.250,96.667 54.328 L 96.250 53.583 96.250 39.917 C 96.250 24.943,96.194 25.818,97.218 24.861 C 98.117 24.022,98.403 23.994,105.667 24.052 C 112.129 24.104,112.473 24.122,113.743 24.489 M342.000 24.164 C 343.423 24.560,343.890 25.289,344.832 28.583 C 345.267 30.104,345.766 31.776,346.076 32.750 C 346.193 33.117,346.457 34.017,346.663 34.750 C 346.870 35.483,347.170 36.496,347.330 37.000 C 347.634 37.952,347.862 38.720,348.596 41.250 C 349.731 45.162,349.952 45.227,351.142 42.000 C 351.327 41.496,351.903 39.996,352.421 38.667 C 352.940 37.337,353.533 35.800,353.741 35.250 C 354.470 33.316,355.145 31.561,356.049 29.250 C 356.551 27.967,357.012 26.749,357.075 26.544 C 357.962 23.621,361.441 23.134,362.619 25.768 C 363.090 26.823,364.832 31.281,364.839 31.452 C 364.842 31.524,364.990 31.883,365.167 32.250 C 365.344 32.617,365.491 32.990,365.494 33.080 C 365.497 33.169,365.756 33.882,366.068 34.663 C 366.381 35.444,366.821 36.571,367.046 37.167 C 370.299 45.794,370.235 45.727,371.291 41.583 C 371.516 40.700,372.442 37.445,372.738 36.500 C 372.867 36.087,373.021 35.525,373.080 35.250 C 373.442 33.560,375.408 32.345,376.822 32.936 C 378.408 33.599,379.180 35.189,378.680 36.767 C 378.596 37.033,378.217 38.262,377.839 39.500 C 377.460 40.737,377.048 42.050,376.924 42.417 C 376.799 42.783,376.493 43.758,376.243 44.583 C 375.994 45.408,375.584 46.721,375.333 47.500 C 375.082 48.279,374.671 49.592,374.418 50.417 C 373.179 54.468,373.016 54.831,372.167 55.410 C 370.346 56.654,368.419 55.624,367.344 52.833 C 367.044 52.054,366.311 50.179,365.715 48.667 C 365.119 47.154,364.443 45.429,364.212 44.833 C 363.982 44.237,363.695 43.525,363.575 43.250 C 363.455 42.975,363.157 42.225,362.913 41.583 C 360.956 36.441,360.408 35.250,360.000 35.250 C 359.637 35.250,359.498 35.499,358.565 37.833 C 356.945 41.884,353.569 50.452,352.654 52.833 C 350.955 57.257,347.667 57.043,346.249 52.417 C 345.996 51.592,345.584 50.279,345.333 49.500 C 345.082 48.721,344.671 47.408,344.419 46.583 C 344.167 45.758,343.755 44.446,343.502 43.667 C 343.250 42.887,342.838 41.575,342.586 40.750 C 342.334 39.925,341.887 38.500,341.593 37.583 C 341.299 36.667,340.888 35.354,340.679 34.667 C 340.469 33.979,340.197 33.117,340.074 32.750 C 338.160 27.061,338.075 26.089,339.392 24.897 C 340.350 24.030,340.931 23.867,342.000 24.164 M379.916 24.333 C 382.027 25.355,382.063 28.448,379.975 29.513 C 378.317 30.359,376.417 29.431,375.997 27.571 C 375.469 25.229,377.795 23.306,379.916 24.333 M146.029 24.714 C 146.425 25.015,147.575 26.278,148.583 27.520 C 149.592 28.762,151.542 31.154,152.917 32.837 C 154.292 34.519,155.920 36.519,156.536 37.281 C 157.151 38.042,158.464 39.652,159.452 40.857 C 160.441 42.062,161.570 43.450,161.961 43.941 C 162.712 44.884,162.771 44.920,163.167 44.670 C 163.376 44.539,163.431 43.752,163.502 39.881 C 163.556 36.954,163.657 35.093,163.778 34.823 C 164.602 32.973,167.331 32.760,168.616 34.445 L 169.083 35.057 169.129 44.301 C 169.181 54.738,169.207 54.507,167.860 55.423 C 166.010 56.680,164.888 55.920,160.473 50.417 C 159.517 49.225,157.876 47.208,156.826 45.935 C 155.776 44.663,154.204 42.741,153.333 41.665 C 149.440 36.854,148.139 35.333,147.917 35.333 C 147.374 35.333,147.333 35.965,147.333 44.314 C 147.333 53.359,147.282 54.001,146.484 54.909 C 145.227 56.341,142.946 56.121,142.011 54.477 C 141.670 53.878,141.667 53.717,141.667 39.960 L 141.667 26.049 142.046 25.487 C 143.018 24.043,144.712 23.715,146.029 24.714 M167.773 24.515 C 168.876 25.196,169.486 26.900,168.980 27.886 C 167.282 31.198,162.483 29.320,163.735 25.833 C 164.259 24.375,166.410 23.672,167.773 24.515 M216.300 24.402 C 217.956 25.267,217.989 25.483,218.005 35.333 C 218.021 45.774,218.139 46.504,220.176 48.730 C 223.189 52.022,229.980 51.676,232.631 48.095 C 234.045 46.184,234.360 44.690,234.485 39.303 C 234.597 34.447,234.601 34.432,236.010 33.698 C 237.327 33.011,238.891 33.525,239.619 34.884 C 240.243 36.047,240.067 44.170,239.362 46.750 C 237.645 53.036,233.019 56.424,226.167 56.411 C 219.080 56.398,214.791 53.183,212.900 46.466 L 212.492 45.015 212.538 35.383 C 212.582 26.047,212.594 25.736,212.917 25.304 C 213.677 24.288,215.269 23.863,216.300 24.402 M238.480 24.509 C 240.902 25.870,239.972 29.667,237.217 29.667 C 234.320 29.667,233.441 25.582,236.083 24.403 C 236.816 24.076,237.786 24.119,238.480 24.509 M296.879 24.518 C 304.670 26.513,307.023 36.290,301.043 41.814 C 299.603 43.145,299.511 43.331,299.916 44.106 C 300.870 45.936,299.590 48.000,297.500 48.000 C 296.311 48.000,295.795 47.656,294.841 46.227 C 293.671 44.474,293.774 44.513,290.329 44.506 C 286.287 44.498,286.667 44.001,286.667 49.304 C 286.667 54.177,286.640 54.296,285.322 55.309 C 284.058 56.281,282.204 55.799,281.375 54.283 C 281.013 53.621,280.820 27.986,281.165 26.389 C 281.367 25.455,281.914 24.769,282.750 24.400 C 283.693 23.985,295.172 24.080,296.879 24.518 M322.488 24.411 C 325.742 26.093,323.997 29.833,319.958 29.833 C 317.748 29.833,317.833 29.687,317.833 33.494 C 317.833 37.700,317.078 37.232,324.028 37.333 C 330.343 37.425,330.182 37.398,331.005 38.534 C 331.649 39.422,331.676 40.394,331.084 41.332 C 330.303 42.569,330.281 42.573,323.945 42.667 C 317.094 42.768,317.833 42.307,317.833 46.477 C 317.833 50.620,317.003 50.167,324.584 50.167 C 328.769 50.167,330.968 50.228,331.350 50.356 C 333.176 50.966,333.928 53.129,332.837 54.636 C 331.932 55.885,332.368 55.833,322.739 55.833 C 313.097 55.833,313.405 55.870,312.539 54.606 L 312.167 54.063 312.167 40.009 C 312.167 24.139,312.074 25.243,313.475 24.503 C 314.288 24.073,321.689 23.997,322.488 24.411 M332.086 24.691 C 333.922 26.303,333.345 28.984,331.011 29.683 C 329.811 30.043,328.336 29.180,327.749 27.774 C 326.748 25.377,330.129 22.973,332.086 24.691 M287.000 29.833 C 286.531 30.303,286.477 39.135,286.942 39.521 C 287.749 40.192,294.907 39.826,296.376 39.038 C 299.975 37.108,299.375 31.026,295.465 29.810 C 293.919 29.328,287.487 29.346,287.000 29.833 M295.288 30.318 C 298.959 31.028,299.179 37.429,295.580 38.806 C 294.461 39.234,287.765 39.365,287.367 38.967 C 287.031 38.631,287.088 30.769,287.429 30.429 C 287.722 30.136,293.897 30.048,295.288 30.318 M27.958 31.671 C 22.596 33.019,21.488 40.135,26.209 42.901 C 31.130 45.785,36.978 40.828,34.988 35.458 C 33.997 32.783,30.667 30.990,27.958 31.671 M128.750 32.111 C 128.067 32.472,127.701 32.803,127.142 33.567 L 126.667 34.217 126.669 44.067 L 126.672 53.917 127.046 54.576 C 128.563 57.255,132.603 56.640,133.171 53.645 C 133.391 52.484,133.384 35.815,133.163 34.649 C 132.772 32.583,130.418 31.230,128.750 32.111 M31.277 32.524 C 35.674 34.170,35.995 40.474,31.790 42.605 C 29.705 43.662,26.636 43.111,25.326 41.445 C 24.863 40.857,24.962 40.765,25.719 41.081 C 28.328 42.171,30.910 39.706,29.818 37.168 C 28.907 35.051,25.994 34.719,24.581 36.571 C 23.952 37.396,23.722 37.134,24.060 35.975 C 24.929 32.989,28.261 31.396,31.277 32.524 M131.245 32.684 C 131.506 32.812,131.952 33.205,132.235 33.557 L 132.750 34.197 132.796 43.952 L 132.841 53.707 132.437 54.397 C 131.188 56.529,128.103 56.237,127.296 53.911 C 127.036 53.161,127.013 52.216,127.046 43.833 L 127.083 34.583 127.500 33.833 C 128.233 32.514,129.872 32.011,131.245 32.684 M44.398 34.926 C 40.019 36.544,41.127 43.146,45.781 43.163 C 50.207 43.179,51.745 37.616,47.961 35.277 C 47.004 34.685,45.461 34.533,44.398 34.926 M46.906 35.348 C 50.469 36.245,50.412 41.584,46.829 42.519 C 43.691 43.338,41.090 40.114,42.555 37.222 C 43.383 35.588,45.035 34.877,46.906 35.348 M28.378 36.139 C 30.948 37.834,29.021 41.732,26.192 40.560 C 24.372 39.806,24.104 37.590,25.673 36.270 C 26.321 35.725,27.652 35.661,28.378 36.139 M46.172 36.880 C 44.630 37.660,44.701 39.947,46.287 40.610 C 47.393 41.072,48.498 40.623,49.099 39.467 C 49.943 37.844,47.876 36.018,46.172 36.880 M48.120 37.457 C 48.910 37.973,48.812 39.477,47.954 40.012 C 46.652 40.823,45.145 39.505,45.742 38.078 C 46.153 37.094,47.162 36.830,48.120 37.457 M192.499 39.322 C 188.726 40.470,189.310 45.833,193.208 45.833 C 195.875 45.833,197.502 42.858,195.957 40.805 C 195.078 39.636,193.579 38.994,192.499 39.322 M107.452 39.731 C 103.920 40.827,104.647 46.346,108.322 46.332 C 112.052 46.318,112.737 40.657,109.123 39.708 C 108.219 39.471,108.292 39.470,107.452 39.731 M194.183 40.024 C 196.300 40.734,196.611 43.620,194.711 44.911 C 192.541 46.385,189.472 43.833,190.650 41.535 C 191.399 40.076,192.692 39.523,194.183 40.024 M109.945 40.593 C 111.901 42.086,111.352 44.982,108.977 45.693 C 107.122 46.249,105.007 44.166,105.514 42.282 C 106.034 40.351,108.430 39.438,109.945 40.593 M34.208 44.005 C 33.495 44.292,33.899 44.801,35.512 45.646 C 36.810 46.326,37.177 46.305,38.667 45.458 C 39.899 44.758,40.272 44.275,39.808 43.981 C 39.510 43.792,34.687 43.813,34.208 44.005 M38.626 44.708 C 38.535 44.984,37.336 45.660,36.931 45.664 C 36.494 45.668,35.136 44.852,35.256 44.657 C 35.412 44.405,38.709 44.455,38.626 44.708 M44.632 47.673 C 50.457 49.017,51.488 56.783,46.184 59.378 L 45.083 59.917 38.583 59.968 L 32.083 60.020 31.548 59.385 L 31.013 58.750 28.715 58.750 C 26.735 58.750,26.343 58.795,25.882 59.074 C 24.623 59.835,22.530 57.509,21.980 54.737 C 21.387 51.752,23.494 48.603,26.667 47.729 C 27.610 47.469,43.533 47.420,44.632 47.673 M271.083 47.655 C 268.216 48.347,267.824 52.440,270.496 53.792 C 271.998 54.552,273.935 53.989,274.780 52.547 C 276.284 49.981,273.995 46.952,271.083 47.655 M273.635 48.509 C 275.663 50.108,274.914 53.218,272.410 53.593 C 269.792 53.986,268.052 51.095,269.701 49.094 C 270.676 47.912,272.528 47.636,273.635 48.509 M33.817 48.886 C 33.238 50.156,34.177 51.039,35.374 50.351 L 36.014 49.982 36.569 50.324 C 37.611 50.968,38.333 50.665,38.333 49.583 C 38.333 48.537,37.633 48.206,36.650 48.786 C 36.226 49.037,36.097 49.044,35.624 48.849 C 34.559 48.408,34.030 48.419,33.817 48.886 M35.113 49.433 C 35.255 49.804,34.811 50.049,34.522 49.760 C 34.397 49.635,34.345 49.450,34.407 49.349 C 34.574 49.078,34.996 49.128,35.113 49.433 M37.637 49.529 C 37.575 49.944,37.352 50.059,37.017 49.847 C 36.692 49.642,36.917 49.167,37.340 49.167 C 37.604 49.167,37.677 49.255,37.637 49.529 M301.250 49.934 C 297.985 51.714,298.988 56.243,302.640 56.216 C 305.867 56.192,307.033 52.081,304.329 50.258 C 303.430 49.652,302.036 49.505,301.250 49.934 M303.831 50.641 C 306.374 51.848,305.089 56.157,302.298 55.783 C 299.749 55.441,298.951 52.323,301.020 50.790 C 301.880 50.154,302.712 50.110,303.831 50.641 M31.314 60.000 L 31.974 60.667 37.873 60.667 C 41.322 60.667,44.170 60.593,44.729 60.490 C 46.173 60.223,46.403 60.379,45.307 60.882 C 44.157 61.411,43.833 61.840,43.833 62.837 C 43.833 63.958,43.740 64.000,41.228 64.000 C 38.790 64.000,38.976 64.091,38.758 62.796 C 38.580 61.744,38.322 61.667,34.966 61.667 C 32.697 61.667,31.858 61.726,31.369 61.922 C 30.885 62.115,30.210 62.166,28.574 62.130 L 26.417 62.083 26.147 61.544 C 25.999 61.247,25.784 60.892,25.670 60.754 C 24.988 59.933,26.265 59.335,28.702 59.334 L 30.654 59.333 31.314 60.000 " stroke="none" fill="#a0cdec" fill-rule="evenodd"></path></g></svg>